<?xml version="1.0" encoding="utf-8"?>
<!-- Generator: Adobe Illustrator 23.0.1, SVG Export Plug-In . SVG Version: 6.00 Build 0)  -->
<svg version="1.1" id="Vit" xmlns="http://www.w3.org/2000/svg" xmlns:xlink="http://www.w3.org/1999/xlink" x="0px" y="0px"
	 viewBox="0 0 400 400" style="enable-background:new 0 0 400 400;" xml:space="preserve">
<style type="text/css">
	.st0{display:none;}
	.st1{fill:#FFFFFF;}
</style>
<rect x="-50" y="-50" class="st0" width="500" height="500"/>
<g id="monogram">
	<path id="f" class="st1" d="M206.5,121.7c0-1.6-0.1-3.1-0.4-4.6c-1.1-6.2-4.3-11.8-9.6-16.8c-2.9-2.6-5.9-4.7-9-6.2
		c-4.2-2-8.7-3.1-13.5-3.1c-8.5,0-16.2,1.6-23.1,4.9c-6.9,3.3-12.6,7.6-16.9,13.1c-4.3,5.5-7.7,11.7-10,18.7
		c-2.3,7-3.5,14.3-3.5,21.9v27.5H94.8v8.2h25.5v108.1c0,4.9-2.4,7.3-7.3,7.3h-8.2v8.2h52.4v-8.2H149c-4.9,0-7.3-2.4-7.3-7.3V185.4
		h31.9v-8.2h-31.9v-31.9c0-23.5,6-38,17.9-43.5c3.6-1.7,7.8-2.5,12.6-2.5c3.8,0,6.9,0.9,9.3,2.6c2.4,1.8,3.6,4.1,3.6,6.9
		c0,0.2,0,0.5,0,0.7c-0.2,2.3-1.5,4.6-3.9,6.8c-4,3.8-6,8-6,12.6c0,3.6,1.2,6.7,3.7,9.3c1.7,1.8,3.8,2.9,6.2,3.5
		c1.1,0.2,2.3,0.4,3.5,0.4c5,0,9.2-2,12.7-5.9C204.7,132.1,206.5,127.3,206.5,121.7C206.5,121.8,206.5,121.7,206.5,121.7z"/>
	<path id="h" class="st1" d="M297,300.8c-4.9,0-7.3-2.4-7.3-7.3v-79.1c0-7.1-1.8-14.1-5.3-20.8s-8.7-11.8-15.5-15.2
		c-4.6-2.3-11-3.5-19.2-3.5c-0.5,0-0.9,0-1.4,0c-14.4,0.6-28,10.9-40.7,30.9l-1.2-0.7l0-69.2c-1.5,6.7-10.7,12.7-21.4,10.4v1.4
		v145.8c0,3.7-1.4,6-4.2,6.9c-0.9,0.3-1.9,0.4-3.1,0.4h-8.2v8.2h15.5H222v-8.2h-8.2c-4.9,0-7.3-2.4-7.3-7.3v-70
		c4.4-9,9.2-16.6,14.4-22.9c9-10.9,17.5-16.4,25.5-16.4c0.2,0,0.4,0,0.7,0c0.9,0,1.8,0.1,2.7,0.2c0,0,0,0,0,0
		c0.9,0.1,1.7,0.2,2.5,0.4c0,0,0,0,0,0c0.8,0.2,1.5,0.4,2.3,0.6c0,0,0,0,0,0c0.7,0.2,1.4,0.5,2.1,0.8c0,0,0,0,0.1,0
		c0.6,0.3,1.3,0.6,1.9,1c0,0,0,0,0.1,0c0.6,0.4,1.1,0.8,1.7,1.2c0,0,0,0,0.1,0.1c0.5,0.4,1,0.9,1.5,1.4c0,0,0,0,0.1,0.1
		c0.5,0.5,0.9,1,1.3,1.6c0,0,0,0,0,0c3,4.3,4.7,9.7,5.1,16.2c0.1,0.9,0.1,1.9,0.1,2.9v82.9c0,0.6,0,1.2-0.1,1.7
		c-0.5,3.7-2.9,5.6-7.2,5.6h-8.2v8.2h52.4v-8.2H297z"/>
</g>
<g id="frame">
	<path class="st1" d="M390,10v380H10V10H390 M400,0H0v400h400V0L400,0z"/>
</g>
</svg>
