<svg id="visual" viewBox="0 0 960 300" width="960" height="300" xmlns="http://www.w3.org/2000/svg" xmlns:xlink="http://www.w3.org/1999/xlink" version="1.1"><rect x="0" y="0" width="960" height="300" fill="#ffffff"></rect><path d="M0 140L20 136.7C40 133.3 80 126.7 120 122.3C160 118 200 116 240 120.8C280 125.7 320 137.3 360 137.3C400 137.3 440 125.7 480 118.8C520 112 560 110 600 114C640 118 680 128 720 135.5C760 143 800 148 840 144.2C880 140.3 920 127.7 940 121.3L960 115L960 0L940 0C920 0 880 0 840 0C800 0 760 0 720 0C680 0 640 0 600 0C560 0 520 0 480 0C440 0 400 0 360 0C320 0 280 0 240 0C200 0 160 0 120 0C80 0 40 0 20 0L0 0Z" fill="#bad6f1"></path><path d="M0 99L20 102.3C40 105.7 80 112.3 120 112C160 111.7 200 104.3 240 101.3C280 98.3 320 99.7 360 102.3C400 105 440 109 480 107C520 105 560 97 600 97.2C640 97.3 680 105.7 720 112C760 118.3 800 122.7 840 119.8C880 117 920 107 940 102L960 97L960 0L940 0C920 0 880 0 840 0C800 0 760 0 720 0C680 0 640 0 600 0C560 0 520 0 480 0C440 0 400 0 360 0C320 0 280 0 240 0C200 0 160 0 120 0C80 0 40 0 20 0L0 0Z" fill="#aed0ee"></path><path d="M0 83L20 84.5C40 86 80 89 120 90.7C160 92.3 200 92.7 240 93.2C280 93.7 320 94.3 360 94C400 93.7 440 92.3 480 94.2C520 96 560 101 600 102.8C640 104.7 680 103.3 720 103.8C760 104.3 800 106.7 840 104.2C880 101.7 920 94.3 940 90.7L960 87L960 0L940 0C920 0 880 0 840 0C800 0 760 0 720 0C680 0 640 0 600 0C560 0 520 0 480 0C440 0 400 0 360 0C320 0 280 0 240 0C200 0 160 0 120 0C80 0 40 0 20 0L0 0Z" fill="#a1cbec"></path><path d="M0 81L20 82.2C40 83.3 80 85.7 120 83.5C160 81.3 200 74.7 240 73.3C280 72 320 76 360 78.3C400 80.7 440 81.3 480 83C520 84.7 560 87.3 600 86.5C640 85.7 680 81.3 720 80C760 78.7 800 80.3 840 79.2C880 78 920 74 940 72L960 70L960 0L940 0C920 0 880 0 840 0C800 0 760 0 720 0C680 0 640 0 600 0C560 0 520 0 480 0C440 0 400 0 360 0C320 0 280 0 240 0C200 0 160 0 120 0C80 0 40 0 20 0L0 0Z" fill="#94c5e9"></path><path d="M0 57L20 57C40 57 80 57 120 57.3C160 57.7 200 58.3 240 56.5C280 54.7 320 50.3 360 49.2C400 48 440 50 480 52C520 54 560 56 600 56.3C640 56.7 680 55.3 720 57.3C760 59.3 800 64.7 840 67.3C880 70 920 70 940 70L960 70L960 0L940 0C920 0 880 0 840 0C800 0 760 0 720 0C680 0 640 0 600 0C560 0 520 0 480 0C440 0 400 0 360 0C320 0 280 0 240 0C200 0 160 0 120 0C80 0 40 0 20 0L0 0Z" fill="#88bae1"></path><path d="M0 48L20 46.7C40 45.3 80 42.7 120 43C160 43.3 200 46.7 240 46.2C280 45.7 320 41.3 360 39.8C400 38.3 440 39.7 480 39.2C520 38.7 560 36.3 600 38.3C640 40.3 680 46.7 720 47.8C760 49 800 45 840 43.8C880 42.7 920 44.3 940 45.2L960 46L960 0L940 0C920 0 880 0 840 0C800 0 760 0 720 0C680 0 640 0 600 0C560 0 520 0 480 0C440 0 400 0 360 0C320 0 280 0 240 0C200 0 160 0 120 0C80 0 40 0 20 0L0 0Z" fill="#7cb0d8"></path><path d="M0 13L20 16.2C40 19.3 80 25.7 120 27.7C160 29.7 200 27.3 240 26.2C280 25 320 25 360 22.7C400 20.3 440 15.7 480 14.2C520 12.7 560 14.3 600 17.5C640 20.7 680 25.3 720 25.7C760 26 800 22 840 19.8C880 17.7 920 17.3 940 17.2L960 17L960 0L940 0C920 0 880 0 840 0C800 0 760 0 720 0C680 0 640 0 600 0C560 0 520 0 480 0C440 0 400 0 360 0C320 0 280 0 240 0C200 0 160 0 120 0C80 0 40 0 20 0L0 0Z" fill="#70a5d0"></path></svg>