<svg id="visual" viewBox="0 0 960 300" width="960" height="300" xmlns="http://www.w3.org/2000/svg" xmlns:xlink="http://www.w3.org/1999/xlink" version="1.1"><rect x="0" y="0" width="960" height="300" fill="#e7e5e4"></rect><path d="M0 229L22.8 231.7C45.7 234.3 91.3 239.7 137 239.7C182.7 239.7 228.3 234.3 274 234.2C319.7 234 365.3 239 411.2 241C457 243 503 242 548.8 239C594.7 236 640.3 231 686 232.7C731.7 234.3 777.3 242.7 823 244C868.7 245.3 914.3 239.7 937.2 236.8L960 234L960 301L937.2 301C914.3 301 868.7 301 823 301C777.3 301 731.7 301 686 301C640.3 301 594.7 301 548.8 301C503 301 457 301 411.2 301C365.3 301 319.7 301 274 301C228.3 301 182.7 301 137 301C91.3 301 45.7 301 22.8 301L0 301Z" fill="#bad6f1"></path><path d="M0 257L22.8 254.5C45.7 252 91.3 247 137 245.3C182.7 243.7 228.3 245.3 274 247.7C319.7 250 365.3 253 411.2 252.5C457 252 503 248 548.8 245C594.7 242 640.3 240 686 242.5C731.7 245 777.3 252 823 254.8C868.7 257.7 914.3 256.3 937.2 255.7L960 255L960 301L937.2 301C914.3 301 868.7 301 823 301C777.3 301 731.7 301 686 301C640.3 301 594.7 301 548.8 301C503 301 457 301 411.2 301C365.3 301 319.7 301 274 301C228.3 301 182.7 301 137 301C91.3 301 45.7 301 22.8 301L0 301Z" fill="#a8c9e8"></path><path d="M0 256L22.8 258.3C45.7 260.7 91.3 265.3 137 264.7C182.7 264 228.3 258 274 256.5C319.7 255 365.3 258 411.2 261C457 264 503 267 548.8 267.2C594.7 267.3 640.3 264.7 686 263C731.7 261.3 777.3 260.7 823 260.5C868.7 260.3 914.3 260.7 937.2 260.8L960 261L960 301L937.2 301C914.3 301 868.7 301 823 301C777.3 301 731.7 301 686 301C640.3 301 594.7 301 548.8 301C503 301 457 301 411.2 301C365.3 301 319.7 301 274 301C228.3 301 182.7 301 137 301C91.3 301 45.7 301 22.8 301L0 301Z" fill="#96bde0"></path><path d="M0 271L22.8 271.5C45.7 272 91.3 273 137 273.8C182.7 274.7 228.3 275.3 274 275C319.7 274.7 365.3 273.3 411.2 273C457 272.7 503 273.3 548.8 273.2C594.7 273 640.3 272 686 272.5C731.7 273 777.3 275 823 276.2C868.7 277.3 914.3 277.7 937.2 277.8L960 278L960 301L937.2 301C914.3 301 868.7 301 823 301C777.3 301 731.7 301 686 301C640.3 301 594.7 301 548.8 301C503 301 457 301 411.2 301C365.3 301 319.7 301 274 301C228.3 301 182.7 301 137 301C91.3 301 45.7 301 22.8 301L0 301Z" fill="#83b1d8"></path><path d="M0 290L22.8 288.5C45.7 287 91.3 284 137 283.2C182.7 282.3 228.3 283.7 274 283.7C319.7 283.7 365.3 282.3 411.2 282.7C457 283 503 285 548.8 284.7C594.7 284.3 640.3 281.7 686 282.2C731.7 282.7 777.3 286.3 823 286C868.7 285.7 914.3 281.3 937.2 279.2L960 277L960 301L937.2 301C914.3 301 868.7 301 823 301C777.3 301 731.7 301 686 301C640.3 301 594.7 301 548.8 301C503 301 457 301 411.2 301C365.3 301 319.7 301 274 301C228.3 301 182.7 301 137 301C91.3 301 45.7 301 22.8 301L0 301Z" fill="#70a5d0"></path></svg>