<svg id="visual" viewBox="0 0 960 300" width="960" height="300" xmlns="http://www.w3.org/2000/svg" xmlns:xlink="http://www.w3.org/1999/xlink" version="1.1"><rect x="0" y="0" width="960" height="300" fill="#ffffff"></rect><path d="M0 158L20 161.3C40 164.7 80 171.3 120 175.7C160 180 200 182 240 177.2C280 172.3 320 160.7 360 160.7C400 160.7 440 172.3 480 179.2C520 186 560 188 600 184C640 180 680 170 720 162.5C760 155 800 150 840 153.8C880 157.7 920 170.3 940 176.7L960 183L960 301L940 301C920 301 880 301 840 301C800 301 760 301 720 301C680 301 640 301 600 301C560 301 520 301 480 301C440 301 400 301 360 301C320 301 280 301 240 301C200 301 160 301 120 301C80 301 40 301 20 301L0 301Z" fill="#bad6f1"></path><path d="M0 199L20 195.7C40 192.3 80 185.7 120 186C160 186.3 200 193.7 240 196.7C280 199.7 320 198.3 360 195.7C400 193 440 189 480 191C520 193 560 201 600 200.8C640 200.7 680 192.3 720 186C760 179.7 800 175.3 840 178.2C880 181 920 191 940 196L960 201L960 301L940 301C920 301 880 301 840 301C800 301 760 301 720 301C680 301 640 301 600 301C560 301 520 301 480 301C440 301 400 301 360 301C320 301 280 301 240 301C200 301 160 301 120 301C80 301 40 301 20 301L0 301Z" fill="#aed0ee"></path><path d="M0 215L20 213.5C40 212 80 209 120 207.3C160 205.7 200 205.3 240 204.8C280 204.3 320 203.7 360 204C400 204.3 440 205.7 480 203.8C520 202 560 197 600 195.2C640 193.3 680 194.7 720 194.2C760 193.7 800 191.3 840 193.8C880 196.3 920 203.7 940 207.3L960 211L960 301L940 301C920 301 880 301 840 301C800 301 760 301 720 301C680 301 640 301 600 301C560 301 520 301 480 301C440 301 400 301 360 301C320 301 280 301 240 301C200 301 160 301 120 301C80 301 40 301 20 301L0 301Z" fill="#a1cbec"></path><path d="M0 217L20 215.8C40 214.7 80 212.3 120 214.5C160 216.7 200 223.3 240 224.7C280 226 320 222 360 219.7C400 217.3 440 216.7 480 215C520 213.3 560 210.7 600 211.5C640 212.3 680 216.7 720 218C760 219.3 800 217.7 840 218.8C880 220 920 224 940 226L960 228L960 301L940 301C920 301 880 301 840 301C800 301 760 301 720 301C680 301 640 301 600 301C560 301 520 301 480 301C440 301 400 301 360 301C320 301 280 301 240 301C200 301 160 301 120 301C80 301 40 301 20 301L0 301Z" fill="#94c5e9"></path><path d="M0 241L20 241C40 241 80 241 120 240.7C160 240.3 200 239.7 240 241.5C280 243.3 320 247.7 360 248.8C400 250 440 248 480 246C520 244 560 242 600 241.7C640 241.3 680 242.7 720 240.7C760 238.7 800 233.3 840 230.7C880 228 920 228 940 228L960 228L960 301L940 301C920 301 880 301 840 301C800 301 760 301 720 301C680 301 640 301 600 301C560 301 520 301 480 301C440 301 400 301 360 301C320 301 280 301 240 301C200 301 160 301 120 301C80 301 40 301 20 301L0 301Z" fill="#88bae1"></path><path d="M0 250L20 251.3C40 252.7 80 255.3 120 255C160 254.7 200 251.3 240 251.8C280 252.3 320 256.7 360 258.2C400 259.7 440 258.3 480 258.8C520 259.3 560 261.7 600 259.7C640 257.7 680 251.3 720 250.2C760 249 800 253 840 254.2C880 255.3 920 253.7 940 252.8L960 252L960 301L940 301C920 301 880 301 840 301C800 301 760 301 720 301C680 301 640 301 600 301C560 301 520 301 480 301C440 301 400 301 360 301C320 301 280 301 240 301C200 301 160 301 120 301C80 301 40 301 20 301L0 301Z" fill="#7cb0d8"></path><path d="M0 285L20 281.8C40 278.7 80 272.3 120 270.3C160 268.3 200 270.7 240 271.8C280 273 320 273 360 275.3C400 277.7 440 282.3 480 283.8C520 285.3 560 283.7 600 280.5C640 277.3 680 272.7 720 272.3C760 272 800 276 840 278.2C880 280.3 920 280.7 940 280.8L960 281L960 301L940 301C920 301 880 301 840 301C800 301 760 301 720 301C680 301 640 301 600 301C560 301 520 301 480 301C440 301 400 301 360 301C320 301 280 301 240 301C200 301 160 301 120 301C80 301 40 301 20 301L0 301Z" fill="#70a5d0"></path></svg>